<svg id="Capa_1" data-name="Capa 1" xmlns="http://www.w3.org/2000/svg" viewBox="0 0 168.89 78.28"><defs><style>.cls-1{fill:#4a8d88;}.cls-2{fill:#196b65;}.cls-3{fill:#81cac7;}.cls-3,.cls-4{fill-rule:evenodd;}.cls-4{fill:#b0d5e7;}</style></defs><path class="cls-1" d="M23.88,40.44a27.94,27.94,0,0,1-4.13-.31,22.49,22.49,0,0,1-4-.92,15.26,15.26,0,0,1-3.34-1.53,3.37,3.37,0,0,1-1.53-1.6,3.64,3.64,0,0,1-.29-2,4.16,4.16,0,0,1,.7-1.81,2.52,2.52,0,0,1,1.51-1,2.83,2.83,0,0,1,2.06.39,17.3,17.3,0,0,0,4.35,1.68,19.87,19.87,0,0,0,4.63.56c2.3,0,4-.37,5-1.12a3.42,3.42,0,0,0,1.54-2.86,2.83,2.83,0,0,0-1.08-2.37,9.5,9.5,0,0,0-3.72-1.4l-5.43-1.22a12.75,12.75,0,0,1-6.81-3.55,9.35,9.35,0,0,1-2.21-6.5,11,11,0,0,1,1-4.66,10.52,10.52,0,0,1,2.79-3.63,12.47,12.47,0,0,1,4.34-2.29,18.8,18.8,0,0,1,5.62-.79,21.12,21.12,0,0,1,5.23.66,15.5,15.5,0,0,1,4.61,2A3.33,3.33,0,0,1,36,7.65a3.88,3.88,0,0,1,.24,1.91,3.05,3.05,0,0,1-.72,1.69,2.79,2.79,0,0,1-1.51.89,3.4,3.4,0,0,1-2.21-.46,11.87,11.87,0,0,0-3.34-1.25,17.93,17.93,0,0,0-3.67-.38,9.2,9.2,0,0,0-3.43.56,4.64,4.64,0,0,0-2.14,1.55,4,4,0,0,0-.72,2.37,3.05,3.05,0,0,0,1,2.35A7.6,7.6,0,0,0,23,18.36l5.37,1.22A14.08,14.08,0,0,1,35.42,23a8.57,8.57,0,0,1,2.33,6.25,10.44,10.44,0,0,1-1,4.62,10.18,10.18,0,0,1-2.81,3.51,13,13,0,0,1-4.32,2.25A19.36,19.36,0,0,1,23.88,40.44Z"/><path class="cls-1" d="M50.76,40.44a12,12,0,0,1-5.55-1.15,7.1,7.1,0,0,1-3.28-3.39,13.21,13.21,0,0,1-1.06-5.66V20.6H38.76a2.72,2.72,0,0,1-2-.74A2.82,2.82,0,0,1,36,17.75a2.74,2.74,0,0,1,.75-2.09,2.79,2.79,0,0,1,2-.72h2.11V11a4,4,0,0,1,.94-2.91,3.51,3.51,0,0,1,2.66-1,3.58,3.58,0,0,1,2.71,1A4,4,0,0,1,48.12,11v3.92h4.46a2.85,2.85,0,0,1,2.11.72,2.8,2.8,0,0,1,.72,2.09,2.89,2.89,0,0,1-.72,2.11,2.78,2.78,0,0,1-2.11.74H48.12v9.33A4.75,4.75,0,0,0,49,33.12a3.76,3.76,0,0,0,3,1.05A6,6,0,0,0,53.37,34a5.09,5.09,0,0,1,1.08-.15,1.35,1.35,0,0,1,1.13.43A3.29,3.29,0,0,1,56,36.41a6,6,0,0,1-.36,2.19,2.18,2.18,0,0,1-1.37,1.28,13.12,13.12,0,0,1-1.73.38A11.64,11.64,0,0,1,50.76,40.44Z"/><path class="cls-1" d="M64.2,40.44a10.09,10.09,0,0,1-4.71-1,8,8,0,0,1-3.16-2.85,7.57,7.57,0,0,1-1.16-4.16,6.45,6.45,0,0,1,1.35-4.33,7.9,7.9,0,0,1,4.34-2.3,36.26,36.26,0,0,1,8-.71H71.4v4H68.9a21.82,21.82,0,0,0-4,.28,3.89,3.89,0,0,0-2.13,1,2.46,2.46,0,0,0-.68,1.81,3.1,3.1,0,0,0,.94,2.29,3.64,3.64,0,0,0,2.66.92,4.79,4.79,0,0,0,2.5-.66A4.72,4.72,0,0,0,70,32.79,6,6,0,0,0,70.58,30V24.17a4.38,4.38,0,0,0-1-3.19A4.69,4.69,0,0,0,66.31,20a13.63,13.63,0,0,0-2.76.31,16.16,16.16,0,0,0-3.34,1.12,2.7,2.7,0,0,1-1.89.2,2.15,2.15,0,0,1-1.23-1A3.31,3.31,0,0,1,56.66,19a3.35,3.35,0,0,1,.48-1.73,3,3,0,0,1,1.63-1.23,22.46,22.46,0,0,1,4.2-1.3,19.84,19.84,0,0,1,3.63-.38,14.25,14.25,0,0,1,6.12,1.15,7.5,7.5,0,0,1,3.6,3.54,13.82,13.82,0,0,1,1.17,6.07V36.46a4.19,4.19,0,0,1-.88,2.88,3.18,3.18,0,0,1-2.48,1,3.24,3.24,0,0,1-2.52-1,4.19,4.19,0,0,1-.88-2.88V34.57l.33.36a6.36,6.36,0,0,1-3.57,4.82A7.44,7.44,0,0,1,64.2,40.44Z"/><path class="cls-1" d="M86.71,49.51a2.82,2.82,0,0,1-3-2.52,4.15,4.15,0,0,1,.38-2.42l3.22-7.5v3.11l-8.5-20.7A4.83,4.83,0,0,1,78.5,17a2.86,2.86,0,0,1,1.06-1.84A3.82,3.82,0,0,1,82,14.48a3.39,3.39,0,0,1,2.13.62,4.93,4.93,0,0,1,1.37,2.49l5.71,15.2H89.73l5.81-15.3a5.46,5.46,0,0,1,1.51-2.37,3.72,3.72,0,0,1,2.28-.64,2.83,2.83,0,0,1,2,.69,3,3,0,0,1,.91,1.81,4.52,4.52,0,0,1-.41,2.45L90.55,46.61a5.07,5.07,0,0,1-1.61,2.32A4,4,0,0,1,86.71,49.51Z"/><path class="cls-2" d="M106.82,40.34a3.51,3.51,0,0,1-2.73-1.05,4.25,4.25,0,0,1-1-3V10.51H94.68a3,3,0,0,1-2.35-.87,3.41,3.41,0,0,1-.82-2.45,3.24,3.24,0,0,1,.82-2.37A3.11,3.11,0,0,1,94.68,4h24.38a3.09,3.09,0,0,1,2.31.84,3.28,3.28,0,0,1,.81,2.37,3.45,3.45,0,0,1-.81,2.45,3,3,0,0,1-2.31.87h-8.49v25.8a4.35,4.35,0,0,1-.94,3A3.56,3.56,0,0,1,106.82,40.34Z"/><path class="cls-2" d="M117.05,40.34a3.72,3.72,0,0,1-2.79-1,4,4,0,0,1-1-2.88V18.36a4,4,0,0,1,.94-2.88,3.48,3.48,0,0,1,2.66-1,3.34,3.34,0,0,1,2.59,1,4.1,4.1,0,0,1,.92,2.88V21h-.48a7.63,7.63,0,0,1,2.52-4.74,8.62,8.62,0,0,1,5.16-1.89,2,2,0,0,1,1.8.64,4.15,4.15,0,0,1,.74,2.47,3.79,3.79,0,0,1-.65,2.45,3.26,3.26,0,0,1-2.33,1.12l-1.1.1A6.11,6.11,0,0,0,122,22.85,5.85,5.85,0,0,0,120.69,27v9.48a4.1,4.1,0,0,1-.91,2.88A3.54,3.54,0,0,1,117.05,40.34Z"/><path class="cls-2" d="M134.28,10.35a4.19,4.19,0,0,1-3-1,3.85,3.85,0,0,1-1.05-2.9,3.7,3.7,0,0,1,1.05-2.83,4.23,4.23,0,0,1,3-1,4.37,4.37,0,0,1,3.09,1,3.64,3.64,0,0,1,1.08,2.83,3.79,3.79,0,0,1-1.08,2.9A4.33,4.33,0,0,1,134.28,10.35Zm0,30a3.33,3.33,0,0,1-2.64-1.1,4.54,4.54,0,0,1-1-3.09V18.67a4.43,4.43,0,0,1,1-3.09,3.4,3.4,0,0,1,2.64-1.05A3.45,3.45,0,0,1,137,15.58a4.53,4.53,0,0,1,.93,3.09V36.15a4.69,4.69,0,0,1-.91,3.09A3.36,3.36,0,0,1,134.28,40.34Z"/><path class="cls-2" d="M144.74,49.51a3.53,3.53,0,0,1-2.64-1,4,4,0,0,1-1-2.9V18.36a4,4,0,0,1,.94-2.88,4,4,0,0,1,5.28,0,4.06,4.06,0,0,1,.93,2.88v3.47l-.53-2a7,7,0,0,1,2.91-4,8.76,8.76,0,0,1,5-1.48A9.54,9.54,0,0,1,161.11,16a10.16,10.16,0,0,1,3.62,4.49A17.19,17.19,0,0,1,166,27.38a17.37,17.37,0,0,1-1.29,7,10.26,10.26,0,0,1-3.6,4.51,9.47,9.47,0,0,1-5.43,1.56A8.78,8.78,0,0,1,150.74,39a6.83,6.83,0,0,1-2.88-3.72h.53V45.64a4,4,0,0,1-.94,2.9A3.58,3.58,0,0,1,144.74,49.51Zm8.78-14.78a4.83,4.83,0,0,0,2.72-.79,5.09,5.09,0,0,0,1.82-2.43,11.28,11.28,0,0,0,.65-4.13c0-2.48-.48-4.3-1.44-5.48a4.63,4.63,0,0,0-3.75-1.76A4.6,4.6,0,0,0,149,23.31a11.09,11.09,0,0,0-.65,4.07q0,3.78,1.44,5.56A4.59,4.59,0,0,0,153.52,34.73Z"/><path class="cls-3" d="M94.61,62.93c-.27,0-9-.15-13-.5a2.31,2.31,0,0,0-1.67.6c-1.27,1-4.54,3.38-4.9,3.6a1.34,1.34,0,0,1-1.56,0A1.29,1.29,0,0,1,73,65.16c.26-1,2.08-6.93,1.84-7.77a81.2,81.2,0,0,1-2.17-8,7.22,7.22,0,0,1,0-1.47,1.22,1.22,0,0,1,1.4-1.14A4.3,4.3,0,0,1,76.74,48c1.24,1.09,2.52,2.14,3.78,3.22a8.33,8.33,0,0,0,6.31,2c2.94-.21,8.71-.72,8.71-.72S94.43,47.07,93.83,45c-.19-.65-.35-1.3-.49-2a1.32,1.32,0,0,1,2.15-1.49,19.71,19.71,0,0,1,2.62,2c1.28,1.24,2.46,2.58,3.66,3.89,1,1,3.15,3.79,3.15,3.79s8-.53,9.76-.69a18.67,18.67,0,0,1,8.19.72c.69.23,1.42.45,1.69,1.27a3.3,3.3,0,0,1-.18,2.84,4.58,4.58,0,0,1-2,1.87,18.21,18.21,0,0,1-1.67.78c-3.59,1.4-7.09,3.08-10.85,4a4.1,4.1,0,0,0-1.77.94c-1.71,1.5-3.42,3-5.1,4.51-1.87,1.69-3.69,3.43-5.56,5.12a20.89,20.89,0,0,1-4.73,3.16c-.63.31-1.28.58-1.89,0a1.73,1.73,0,0,1-.32-2,8.23,8.23,0,0,1,.48-1A72.76,72.76,0,0,0,94.61,62.93Z"/><path class="cls-4" d="M66.65,59.51a4,4,0,0,1-2.23.84A57,57,0,0,1,53,61a83.17,83.17,0,0,1-24.48-4.85,65,65,0,0,1-6.3-2.58A35.59,35.59,0,0,1,7.41,40.43,15.08,15.08,0,0,1,5,29.35a10.23,10.23,0,0,1,2.26-5,3,3,0,0,1,2.5-1.23,2.57,2.57,0,0,1-.32.73A10.07,10.07,0,0,0,6.59,31a13.87,13.87,0,0,0,2.54,8.5A34.71,34.71,0,0,0,23.34,51.76a82.12,82.12,0,0,0,17.51,5.59,87,87,0,0,0,16.09,1.77c2.45.06,4.91.08,7.37.14C65,59.28,65.75,59.41,66.65,59.51Z"/><path class="cls-4" d="M39.78,65a15.34,15.34,0,0,1-3.62-.44,61.73,61.73,0,0,1-13-4.64,51.17,51.17,0,0,1-8.71-5.13,40.77,40.77,0,0,1-11-12A31.51,31.51,0,0,1,2,39.62a5,5,0,0,1-.32-2.88,6.13,6.13,0,0,1,.45-1.18c.24.31.46.47.47.64.25,2.88,1.75,5.21,3.3,7.5a41,41,0,0,0,14.77,13A105.19,105.19,0,0,0,37.37,64c.69.23,1.39.48,2.08.73C39.55,64.74,39.62,64.86,39.78,65Z"/><path class="cls-4" d="M67.71,56a5,5,0,0,1-2.82.77c-1.78,0-3.57,0-5.34-.16a114.51,114.51,0,0,1-20-3.29,43.74,43.74,0,0,1-15-6.82c-.59-.44-1.19-.88-1.75-1.36A9.91,9.91,0,0,1,21.73,44a.49.49,0,0,1,0-.48.53.53,0,0,1,.47-.09,1.28,1.28,0,0,1,.47.28,42.55,42.55,0,0,0,15.93,7.79,103.46,103.46,0,0,0,16.1,3c3.6.39,7.21.69,10.81,1A5.05,5.05,0,0,1,67.71,56Z"/><path class="cls-4" d="M50,66.1l9.17.73a7.11,7.11,0,0,1-4.16.9,9.65,9.65,0,0,1-4.79-.86C50.1,66.81,50.1,66.55,50,66.1Z"/></svg>