<?xml version="1.0" encoding="utf-8"?>
<!-- Generator: Adobe Illustrator 25.4.1, SVG Export Plug-In . SVG Version: 6.00 Build 0)  -->
<svg version="1.1" id="Capa_1" xmlns="http://www.w3.org/2000/svg" xmlns:xlink="http://www.w3.org/1999/xlink" x="0px" y="0px"
	 viewBox="0 0 1440 86.3" style="enable-background:new 0 0 1440 86.3;" xml:space="preserve">
<style type="text/css">
	.st0{fill:#4D8D88;}
</style>
<path class="st0" d="M1440,0h-30c-30,0-90,0-150,0s-120,0-180,0S960,0,900,0S780,0,720,0S600,0,540,0S420,0,360,0S240,0,180,0
	S60,0,30,0H0v11.7l31.8,3.6c28.4,7.3,102.6-5.1,157.3,14.3c42.6,13,111.3,5.4,179.2,11c55.3,5.8,120.8,20.9,172.1,29.4
	c59.6,13.9,120.2,15,181,2.3c64.6-13.5,81.7,0,177.7-33c60-26.3,120-31.7,180-26c60,5.3,120.9,27.3,180.9,32.6
	c60,5.7,120-16.3,150-26.6l30-10.7V0z"/>
</svg>
